<svg width="60" height="60" viewBox="0 0 60 60" fill="none" xmlns="http://www.w3.org/2000/svg">
<path d="M57 10C58.6534 9.99183 59.9918 8.65349 60 7.00001C60 5.34318 58.6568 4.00001 57 4.00001H56V3.00005C56.0059 2.20834 55.6906 1.44813 55.126 0.893034C54.5689 0.317759 53.8009 -0.00476935 53 5.3317e-05C51.3432 5.3317e-05 50 1.34322 50 3.00005V4.00001H46.0001V3.00005C46.006 2.20834 45.6907 1.44813 45.1261 0.893034C44.5689 0.317759 43.8009 -0.00476935 43.0001 5.3317e-05C41.3433 5.3317e-05 40.0001 1.34322 40.0001 3.00005V4.00001H36.0001V3.00005C36.006 2.20834 35.6907 1.44813 35.1262 0.893034C34.569 0.317759 33.801 -0.00476935 33.0001 5.3317e-05C31.3433 5.3317e-05 30.0001 1.34322 30.0001 3.00005V4.00001H26.691C26.691 1.79084 24.9001 5.3317e-05 22.691 5.3317e-05H5.00002C2.23998 0.00330124 0.00334634 2.23994 0 4.99998V54.9999C0.00334634 57.76 2.23998 59.9966 5.00002 59.9999H55C57.76 59.9966 59.9967 57.76 60 54.9999V37.31C60 35.1008 58.2091 33.31 56 33.31V30H57C58.6534 29.9918 59.9918 28.6535 60 27C60 25.3432 58.6568 24 57 24H56V20.0001H57C58.6534 19.9919 59.9918 18.6535 60 17.0001C60 15.3432 58.6568 14.0001 57 14.0001H56V10.0001H57V10ZM57 6.00004C57.5522 6.00004 58 6.44776 58 7.00001C58.0007 7.26968 57.8899 7.52775 57.694 7.71298C57.5109 7.8984 57.2605 8.00194 57 7.99997H56V6.00004H57ZM52 3.00005C52 2.4478 52.4477 2.00008 52.9999 2.00008C53.2693 1.99969 53.5269 2.11041 53.7119 2.30608C53.8985 2.48845 54.0026 2.73913 53.9999 3.00005V33.716C53.6509 33.828 53.3219 33.943 52.9999 34.057C52.6779 34.171 52.343 34.288 52 34.396V3.00005ZM44 10V14H41.9999V10H44ZM50 10V14H46V10H50ZM35.9999 28V25.9999H50V28H35.9999ZM50 16V18H35.9999V16H50ZM41.9999 24V20.0001H44V24H41.9999ZM35.9999 24V20.0001H39.9999V24H35.9999ZM46 20H50V23.9999H46V20ZM40 14H36V10H40V14ZM35.9999 30H39.9999V33.357C38.7928 33.1032 37.5613 32.9836 36.3279 33C36.2149 33 36.1099 33.013 35.9998 33.017V30H35.9999ZM41.9999 30H44V34.588C43.4 34.432 42.868 34.247 42.329 34.057L41.9999 33.9421V30ZM46 30H50V34.8489C49.2259 34.9547 48.4452 35.005 47.6639 34.9999C47.0389 34.9999 46.4939 34.973 45.9999 34.9279V30H46ZM41.9999 3.00005C41.9999 2.4478 42.4477 2.00008 42.9999 2.00008C43.2693 1.99969 43.5268 2.11041 43.7119 2.30608C43.8985 2.48845 44.0025 2.73913 43.9999 3.00005V4.00001H41.9998V3.00005H41.9999ZM50 6.00004V8.00007H35.9999V6.00004H50ZM32 3.00005C32 2.4478 32.4477 2.00008 32.9999 2.00008C33.2693 1.99969 33.5269 2.11041 33.7119 2.30608C33.8985 2.48845 34.0026 2.73913 33.9999 3.00005V33.305C33.3134 33.4822 32.6441 33.7201 31.9999 34.016V3.00005H32ZM26.6449 20H30V23.9999H26.9829C26.9829 23.8869 27 23.779 27 23.6639C27.0163 22.4333 26.8973 21.2046 26.6449 20ZM30 14H25.073C25.027 13.505 24.9999 12.957 24.9999 12.328C24.9951 11.5495 25.0452 10.7714 25.1499 10H30V14ZM30 16V18H26.0609C26.021 17.888 25.9819 17.774 25.9429 17.663C25.7539 17.127 25.5689 16.599 25.4139 16H30ZM26.694 25.9999H30V28H25.981C26.2771 27.3556 26.5157 26.6863 26.694 25.9999ZM24.946 30H30V35.051C27.736 36.294 26.7 36.705 24.9999 35C23.2999 33.2951 23.705 32.2609 24.946 30ZM30 7.99997H25.6C25.708 7.65599 25.824 7.32795 25.941 7.00001C26.0581 6.67197 26.1691 6.35102 26.28 6.00004H30V7.99997ZM58 37.31V54.9999C58 56.6568 56.6568 57.9999 55 57.9999H5.00002C3.34319 57.9999 2.00003 56.6568 2.00003 54.9999V4.99998C2.00003 3.34315 3.34319 1.99998 5.00002 1.99998H22.69C23.3031 2.00067 23.8822 2.28196 24.262 2.76334C24.6417 3.24482 24.7801 3.87354 24.638 4.46998C24.4778 5.09998 24.2839 5.72082 24.057 6.32995C23.3135 8.24091 22.9542 10.2799 23.0001 12.3299C22.9541 14.38 23.3134 16.419 24.057 18.3299C24.7233 20.0274 25.0438 21.8409 25 23.6639C24.9015 25.5265 24.3062 27.3289 23.2761 28.8839C22.0761 31.0639 20.709 33.5359 23.5851 36.4139C26.4611 39.2918 28.9311 37.9279 31.1111 36.7239C32.6651 35.6938 34.4664 35.0985 36.3281 34.9999C38.1517 34.9561 39.9658 35.2768 41.6641 35.9429C43.575 36.6869 45.614 37.0461 47.6641 36.9999C49.7143 37.0461 51.7533 36.6865 53.6641 35.9418C54.2749 35.715 54.8975 35.5211 55.5291 35.3608C56.1257 35.219 56.7545 35.3579 57.236 35.7377C57.7175 36.1175 57.9989 36.6967 58 37.31ZM57 25.9999C57.5522 25.9999 58 26.4477 58 26.9999C58.0007 27.2696 57.8899 27.5276 57.694 27.7129C57.5109 27.8983 57.2605 28.0018 57 27.9999H56V25.9998H57V25.9999ZM57 16C57.5522 16 58 16.4477 58 17C58.0007 17.2696 57.8899 17.5277 57.694 17.7129C57.5109 17.8984 57.2605 18.0019 57 17.9999H56V15.9999L57 16Z" fill="#FF6422"/>
<path d="M8 49C6.34316 49 5 50.3432 5 52C5 53.6568 6.34316 55 8 55C9.65683 55 11 53.6568 11 52C11 50.3432 9.65683 49 8 49ZM8 53C7.44775 53 7.00003 52.5522 7.00003 52C7.00003 51.4478 7.44775 51 8 51C8.55224 51 8.99996 51.4478 8.99996 52C8.99996 52.5523 8.55224 53 8 53Z" fill="#FF6422"/>
<path d="M18 5C16.3432 5 15 6.34316 15 8C15 9.65683 16.3432 11 18 11C19.6568 11 21 9.65683 21 8C21 6.34316 19.6569 5 18 5ZM18 9.00006C17.4478 9.00006 17 8.55234 17 8.00009C17 7.44785 17.4478 7.00013 18 7.00013C18.5522 7.00013 19 7.44785 19 8.00009C19.0001 8.55234 18.5523 9.00006 18 9.00006Z" fill="#FF6422"/>
<path d="M8.99997 46.9999C9.55223 46.9999 9.99993 46.5522 9.99993 46C9.99993 45.4477 9.55223 45 8.99997 45C8.4477 45 8 45.4477 8 46C8 46.5522 8.4477 46.9999 8.99997 46.9999Z" fill="#FF6422"/>
<path d="M16 14.9999C16.5522 14.9999 16.9999 14.5522 16.9999 14C16.9999 13.4477 16.5522 13 16 13C15.4477 13 15 13.4477 15 14C15 14.5522 15.4477 14.9999 16 14.9999Z" fill="#FF6422"/>
<path d="M54 40.9999C54.5522 40.9999 54.9999 40.5522 54.9999 40C54.9999 39.4477 54.5522 39 54 39C53.4477 39 53 39.4477 53 40C53 40.5522 53.4477 40.9999 54 40.9999Z" fill="#FF6422"/>
<path fill-rule="evenodd" clip-rule="evenodd" d="M48.3849 49.211C48.0648 49.459 47.926 49.8755 48.0332 50.2661C48.1403 50.6565 48.4723 50.9439 48.8742 50.9938C49.276 51.0437 49.6682 50.8465 49.8677 50.4941C50.0672 50.1418 50.0346 49.7039 49.785 49.3851C49.4457 48.9516 48.8199 48.8738 48.3849 49.211Z" fill="#FF6422"/>
<path fill-rule="evenodd" clip-rule="evenodd" d="M46.385 39.211C46.065 39.459 45.9261 39.8755 46.0333 40.2661C46.1405 40.6565 46.4724 40.9439 46.8743 40.9938C47.2761 41.0437 47.6684 40.8465 47.8679 40.4941C48.0674 40.1418 48.0347 39.7039 47.7851 39.3851C47.4457 38.9516 46.8201 38.8738 46.385 39.211Z" fill="#FF6422"/>
</svg>
