<svg width="60" height="60" viewBox="0 0 60 60" fill="none" xmlns="http://www.w3.org/2000/svg">
<g clip-path="url(#clip0_2_542)">
<path d="M23.9603 9.45143C24.1269 9.31731 24.2981 9.18868 24.4766 9.06646C24.6815 8.92781 24.9329 8.87577 25.1759 8.92169C25.419 8.96761 25.634 9.10777 25.7742 9.3116C25.9144 9.51543 25.9683 9.76641 25.9241 10.0098C25.88 10.2532 25.7414 10.4693 25.5386 10.6109C25.4004 10.7066 25.2661 10.8069 25.1358 10.9117C24.9419 11.0648 24.6954 11.1352 24.4499 11.1075C24.2043 11.0798 23.9797 10.9563 23.8247 10.7638C23.6698 10.5714 23.5971 10.3255 23.6225 10.0797C23.6479 9.83398 23.7693 9.60817 23.9603 9.45143Z" fill="#FF6422"/>
<path d="M21.123 13.8084C21.3266 12.985 21.6643 12.2007 22.1228 11.4871C22.2577 11.2799 22.4691 11.1344 22.7108 11.0822C22.9525 11.0301 23.205 11.0756 23.4134 11.2087C23.6218 11.3419 23.7691 11.5519 23.8233 11.7932C23.8775 12.0345 23.8343 12.2874 23.7029 12.4969C23.3554 13.0379 23.0987 13.6321 22.9431 14.2561C22.8835 14.4972 22.7307 14.7049 22.5181 14.8334C22.3055 14.9619 22.0506 15.0008 21.8094 14.9414C21.5682 14.8821 21.3604 14.7294 21.2317 14.517C21.103 14.3045 21.0639 14.0496 21.123 13.8084Z" fill="#FF6422"/>
<path d="M20.1562 52.4697H17.3438C17.0951 52.4697 16.8567 52.371 16.6808 52.1951C16.505 52.0193 16.4062 51.7809 16.4062 51.5322C16.4062 51.2836 16.505 51.0451 16.6808 50.8693C16.8567 50.6935 17.0951 50.5947 17.3438 50.5947H20.1562C20.4049 50.5947 20.6433 50.6935 20.8192 50.8693C20.995 51.0451 21.0938 51.2836 21.0938 51.5322C21.0938 51.7809 20.995 52.0193 20.8192 52.1951C20.6433 52.371 20.4049 52.4697 20.1562 52.4697Z" fill="#FF6422"/>
<path d="M42.6562 52.4697H39.8438C39.5951 52.4697 39.3567 52.371 39.1808 52.1951C39.005 52.0193 38.9062 51.7809 38.9062 51.5322C38.9062 51.2836 39.005 51.0451 39.1808 50.8693C39.3567 50.6935 39.5951 50.5947 39.8438 50.5947H42.6562C42.9049 50.5947 43.1433 50.6935 43.3192 50.8693C43.495 51.0451 43.5938 51.2836 43.5938 51.5322C43.5938 51.7809 43.495 52.0193 43.3192 52.1951C43.1433 52.371 42.9049 52.4697 42.6562 52.4697Z" fill="#FF6422"/>
<path d="M51.4947 42.1769C49.0586 39.0897 39.0208 35.8544 36.9106 35.2003C36.8275 33.8789 36.6729 32.5629 36.4474 31.2582C38.0411 29.7039 39.1434 27.7159 39.6176 25.5409C40.2367 25.0825 40.7547 24.5014 41.1391 23.8339C41.4687 23.299 41.6856 22.7026 41.7768 22.0811C41.8679 21.4595 41.8313 20.8259 41.6692 20.219C42.1372 20.0443 42.541 19.7315 42.8272 19.3221C43.1133 18.9127 43.2682 18.4259 43.2714 17.9264C43.2735 17.4446 43.1398 16.972 42.8855 16.5627C42.6313 16.1534 42.2669 15.8241 41.834 15.6124C41.7947 13.3228 41.0441 11.1022 39.6862 9.25829C38.3284 7.4144 36.4305 6.03862 34.2557 5.32167C34.1612 4.8703 33.9147 4.465 33.5574 4.17345C33.2001 3.8819 32.7536 3.72174 32.2924 3.71973H27.8723C27.4277 3.72224 26.9966 3.87209 26.6463 4.14583C26.2961 4.41956 26.0465 4.80172 25.9366 5.23247C23.7018 5.92827 21.7423 7.30902 20.3351 9.17945C18.928 11.0499 18.1445 13.3153 18.0954 15.6555C17.683 15.8745 17.338 16.2015 17.0973 16.6016C16.8565 17.0016 16.729 17.4595 16.7285 17.9264C16.7312 18.4194 16.8819 18.9002 17.1612 19.3065C17.4404 19.7128 17.8353 20.0259 18.2945 20.2051C18.0992 21.0898 18.141 22.0105 18.4158 22.8739C18.7889 24.0165 19.5433 24.9962 20.5526 25.6489C21.0557 27.7882 22.1219 29.754 23.6407 31.3424C23.421 32.6213 23.2703 33.9111 23.1892 35.2061C21.0052 35.8586 11.1987 38.9167 8.77253 41.9078C6.57893 44.6118 5.79431 54.1886 5.71192 55.2717C5.69356 55.5194 5.77423 55.7642 5.9362 55.9524C6.09817 56.1407 6.32822 56.2569 6.57584 56.2757C6.82346 56.2945 7.06843 56.2143 7.25696 56.0527C7.44549 55.891 7.56218 55.6612 7.58142 55.4136C7.7929 52.6327 8.68098 44.9967 10.2282 43.0888C11.034 42.0955 13.1113 40.9879 15.4687 39.9724V47.7822H14.5312C14.4081 47.7822 14.2861 47.8064 14.1724 47.8535C14.0586 47.9006 13.9553 47.9697 13.8682 48.0567C13.7811 48.1438 13.7121 48.2472 13.665 48.3609C13.6179 48.4747 13.5937 48.5966 13.5937 48.7197V55.3427C13.5937 55.5913 13.6925 55.8298 13.8683 56.0056C14.0441 56.1814 14.2826 56.2802 14.5312 56.2802C14.7798 56.2802 15.0183 56.1814 15.1941 56.0056C15.3699 55.8298 15.4687 55.5913 15.4687 55.3427V49.6572H44.5312V55.3427C44.5312 55.5913 44.63 55.8298 44.8058 56.0056C44.9816 56.1814 45.2201 56.2802 45.4687 56.2802C45.7173 56.2802 45.9558 56.1814 46.1316 56.0056C46.3074 55.8298 46.4062 55.5913 46.4062 55.3427V48.7197C46.4062 48.5966 46.382 48.4747 46.3349 48.3609C46.2878 48.2472 46.2187 48.1438 46.1317 48.0567C46.0446 47.9697 45.9413 47.9006 45.8275 47.8535C45.7137 47.8064 45.5918 47.7822 45.4687 47.7822H44.5312V40.0191C46.9986 41.1026 49.1945 42.2892 50.0225 43.3387C51.5048 45.2165 52.2537 52.6812 52.4175 55.399C52.4343 55.6458 52.5479 55.8759 52.7337 56.0393C52.9194 56.2027 53.1622 56.286 53.4091 56.2712C53.656 56.2563 53.887 56.1445 54.0518 55.96C54.2166 55.7755 54.3018 55.5334 54.2889 55.2864C54.2257 54.2266 53.6059 44.8525 51.4947 42.1769ZM29.9954 42.2341H30.0082C32.4444 42.2337 35.5004 38.6503 36.7071 37.1017C37.0825 37.2205 37.5127 37.3616 37.9687 37.5145V47.7822H22.0312V37.5332C22.534 37.3699 23.0026 37.222 23.4109 37.0976C24.5919 38.6476 27.5765 42.2217 29.9954 42.2341ZM35.1037 36.1044C33.5567 38.0509 31.2379 40.3591 30.01 40.3591H30.0045C28.7856 40.353 26.5038 38.0272 24.998 36.0827C25.0518 34.9747 25.1652 33.8704 25.3377 32.7746C28.181 34.5597 32.0155 34.118 34.73 32.536C34.9192 33.7178 35.044 34.909 35.1037 36.1044ZM19.0841 17.2796C20.006 17.2375 19.9841 16.2895 19.9767 15.9777L19.9703 15.5941C20.0245 13.7449 20.6329 11.9545 21.7166 10.4551C22.8003 8.95564 24.3094 7.81631 26.0484 7.18475L26.8322 13.2984C26.866 13.5435 26.9953 13.7654 27.1918 13.9156C27.3884 14.0659 27.6364 14.1323 27.8818 14.1006C28.1272 14.0688 28.3501 13.9414 28.5019 13.746C28.6538 13.5507 28.7223 13.3033 28.6926 13.0576L27.7423 5.71009C27.7474 5.67886 27.7631 5.65036 27.7868 5.62936C27.8105 5.60835 27.8406 5.59613 27.8723 5.59473H32.2924C32.324 5.59612 32.3542 5.60835 32.3779 5.62935C32.4016 5.65036 32.4173 5.67886 32.4224 5.71009L31.4721 13.0576C31.4409 13.304 31.5087 13.5527 31.6605 13.7491C31.8124 13.9456 32.036 14.0738 32.2822 14.1057C32.5285 14.1375 32.7773 14.0705 32.9742 13.9191C33.1711 13.7678 33.2999 13.5446 33.3325 13.2984L34.1112 7.27621C35.8021 7.92474 37.2614 9.06234 38.3029 10.5438C39.3445 12.0253 39.9211 13.7835 39.9591 15.5941C39.9591 15.8212 39.9502 16.0462 39.9325 16.2693C39.9226 16.3998 39.94 16.531 39.9838 16.6543C40.0275 16.7777 40.0965 16.8906 40.1865 16.9857C40.2764 17.0808 40.3852 17.1561 40.5059 17.2067C40.6266 17.2573 40.7565 17.2822 40.8874 17.2796C41.1368 17.2187 41.3965 17.6307 41.3965 17.9264C41.3965 18.364 40.9213 18.5398 40.6402 18.5751C37.1193 18.9729 33.579 19.1749 30.0357 19.1802C26.4687 19.1735 22.9047 18.9715 19.3597 18.5751C19.0786 18.5398 18.6035 18.364 18.6035 17.9264C18.5988 17.7802 18.6438 17.6367 18.7311 17.5192C18.8183 17.4018 18.9428 17.3173 19.0841 17.2796ZM22.304 24.8734C22.2772 24.7366 22.2202 24.6075 22.1372 24.4955C22.0543 24.3834 21.9473 24.2913 21.8243 24.2257C21.0603 23.8119 20.4806 23.1249 20.2011 22.3022C20.0213 21.734 19.9993 21.1278 20.1372 20.548C23.6078 20.9181 27.5511 21.0552 30.0357 21.0552C32.4787 21.0552 36.3631 20.9195 39.8159 20.5534C39.9399 20.943 39.9771 21.355 39.9248 21.7605C39.8724 22.166 39.732 22.5551 39.5132 22.9005C39.2061 23.4284 38.7765 23.8748 38.2607 24.2019C38.1512 24.2726 38.0576 24.3655 37.986 24.4745C37.9145 24.5836 37.8665 24.7063 37.8451 24.835C37.6262 26.138 37.1202 27.376 36.3638 28.4593C35.6074 29.5427 34.6195 30.4442 33.4717 31.0986C33.3224 31.1759 29.7812 32.9855 26.7434 31.4208C25.5919 30.6947 24.6031 29.7381 23.8391 28.6114C23.0751 27.4846 22.5524 26.212 22.304 24.8734ZM17.3437 47.7822V39.2034C18.2972 38.8306 19.2533 38.4801 20.1562 38.1649V47.7822H17.3437ZM42.6562 47.7822H39.8437V38.1661C40.7441 38.4897 41.6983 38.8495 42.6562 39.2333V47.7822Z" fill="#FF6422"/>
<path d="M29.989 18.0166C28.016 18.0161 25.1788 17.839 22.4002 17.5428C22.1544 17.5146 21.9297 17.3905 21.775 17.1973C21.6204 17.0042 21.5484 16.7577 21.5748 16.5117C21.6011 16.2657 21.7237 16.0401 21.9157 15.8841C22.1077 15.7281 22.3536 15.6543 22.5998 15.6788C25.3161 15.9681 28.0783 16.1411 29.989 16.1416C32.2503 16.1411 35.2999 15.9017 37.4011 15.6783C37.647 15.6545 37.8925 15.7287 38.084 15.8849C38.2754 16.0411 38.3975 16.2666 38.4236 16.5123C38.4496 16.7581 38.3776 17.0042 38.2232 17.1971C38.0687 17.39 37.8443 17.514 37.5988 17.5423C36.557 17.6536 32.9278 18.0161 29.989 18.0166Z" fill="#FF6422"/>
</g>
<defs>
<clipPath id="clip0_2_542">
<rect width="60" height="60" fill="white"/>
</clipPath>
</defs>
</svg>
