<svg width="60" height="60" viewBox="0 0 60 60" fill="none" xmlns="http://www.w3.org/2000/svg">
<path d="M32.8251 35.2898C32.8258 35.2896 32.8264 35.2894 32.8271 35.2891C32.9711 35.2478 33.1063 35.1649 33.205 35.0662C33.9384 34.3329 49.2318 19.0393 49.9714 18.2997C50.627 17.6441 50.8372 16.7101 50.6049 15.8746H53.6019C54.0874 15.8746 54.4808 15.481 54.4808 14.9956C54.4808 14.5103 54.0874 14.1167 53.6019 14.1167H49.3008L48.0651 12.8811C47.0967 11.9127 45.5211 11.9127 44.5526 12.8811L43.317 14.1167H26.975C26.4896 14.1167 26.0961 14.5103 26.0961 14.9956C26.0961 15.0149 26.0969 35.3587 26.0969 35.3587C26.0974 35.7272 26.24 36.0846 26.504 36.3485C26.8638 36.7084 27.3964 36.842 27.8922 36.7001L32.8251 35.2898ZM32.5836 33.2018L29.6508 30.269L43.6812 16.2387L46.614 19.1714L32.5836 33.2018ZM41.5592 15.8747L27.8539 29.5801V15.8747H41.5592ZM28.016 34.8365L28.8422 31.9465L30.9059 34.0101C29.8276 34.3187 29.0812 34.532 28.016 34.8365ZM48.7284 17.0569L47.8567 17.9285L44.924 14.9958L45.7956 14.1241C46.079 13.8405 46.5385 13.8404 46.822 14.1241C48.7076 16.0098 47.939 15.241 48.7284 16.0304C49.0122 16.3141 49.0121 16.7731 48.7284 17.0569Z" fill="#FF6422"/>
<path d="M59.1211 39.4366C59.6066 39.4366 60 39.0431 60 38.5577V11.1471C60 9.45058 58.6198 8.07046 56.9232 8.07046H55.0351V5.51109C55.0351 3.81457 53.655 2.43445 51.9585 2.43445H3.07664C1.35773 2.43433 -0.00011718 3.83589 7.58471e-09 5.51109V11.911C7.58471e-09 12.3964 0.393516 12.79 0.878906 12.79C1.3643 12.79 1.75781 12.3964 1.75781 11.911V5.51097C1.7577 4.76507 2.36273 4.19214 3.07664 4.19214H51.9585C52.6856 4.19214 53.2773 4.78382 53.2773 5.51097V8.07035C47.7091 8.07035 13.7659 8.07035 8.04164 8.07035C6.34512 8.07035 4.965 9.45058 4.965 11.147V45.0891H3.07664C2.34938 45.0891 1.75781 44.4974 1.75781 43.7702V16.0126C1.75781 15.5272 1.3643 15.1337 0.878906 15.1337C0.393516 15.1337 7.5847e-09 15.5272 7.5847e-09 16.0126V43.7702C7.5847e-09 45.4668 1.38023 46.8469 3.07664 46.8469H4.96488V49.4062C4.96488 51.1028 6.34512 52.4829 8.04152 52.4829H14.1963V55.8663C14.1963 56.8032 14.9586 57.5655 15.8955 57.5655H22.1095C23.0464 57.5655 23.8088 56.8032 23.8088 55.8663V52.4829H56.9231C58.6196 52.4829 59.9999 51.1027 59.9999 49.4062V42.6593C59.9999 42.1739 59.6065 41.7804 59.121 41.7804C58.6355 41.7804 58.2421 42.1739 58.2421 42.6593V49.4062C58.2421 50.1335 57.6504 50.7251 56.9231 50.7251H23.8089V20.7669C23.8089 19.83 23.0466 19.0677 22.1096 19.0677H15.8957C14.9588 19.0677 14.1964 19.83 14.1964 20.7669V50.7252H8.04164C7.31438 50.7252 6.72281 50.1335 6.72281 49.4064C6.72281 48.6135 6.72281 11.9419 6.72281 11.1472C6.72281 10.42 7.31449 9.82839 8.04164 9.82839H56.9234C57.6506 9.82839 58.2423 10.4201 58.2423 11.1472V38.5578C58.2422 39.0431 58.6356 39.4366 59.1211 39.4366ZM15.9543 20.8255H22.0511V24.1503H20.7422C20.2568 24.1503 19.8633 24.5439 19.8633 25.0293C19.8633 25.5146 20.2568 25.9082 20.7422 25.9082H22.0511V30.7941H20.7422C20.2568 30.7941 19.8633 31.1876 19.8633 31.673C19.8633 32.1584 20.2568 32.5519 20.7422 32.5519H22.0511V37.4378H20.7422C20.2568 37.4378 19.8633 37.8313 19.8633 38.3167C19.8633 38.8021 20.2568 39.1956 20.7422 39.1956H22.0511V44.0815H20.7422C20.2568 44.0815 19.8633 44.475 19.8633 44.9604C19.8633 45.4458 20.2568 45.8393 20.7422 45.8393H22.0511V50.7252H20.7422C20.2568 50.7252 19.8633 51.1187 19.8633 51.6041C19.8633 52.0895 20.2568 52.483 20.7422 52.483H22.0511V55.8078H15.9543V51.6041C15.9543 50.4925 15.9543 22.1434 15.9543 20.8255Z" fill="#FF6422"/>
</svg>
